<?xml version="1.0" encoding="utf-8"?>
<!-- Generator: Adobe Illustrator 19.1.0, SVG Export Plug-In . SVG Version: 6.00 Build 0)  -->
<svg version="1.1" id="Capa_1" xmlns="http://www.w3.org/2000/svg" xmlns:xlink="http://www.w3.org/1999/xlink" x="0px" y="0px"
	 viewBox="0 0 1000 1000" style="enable-background:new 0 0 1000 1000;" xml:space="preserve">
<style type="text/css">
	.st0{fill:url(#SVGID_1_);}
	.st1{fill:url(#SVGID_2_);}
	.st2{fill:#FFDF00;}
	.st3{fill:#FFFFFF;}
	.st4{fill:#EDEDED;}
	.st5{stroke:#000000;stroke-miterlimit:10;}
	.st6{fill:none;}
</style>
<radialGradient id="SVGID_1_" cx="500.0001" cy="500.0001" r="408.3857" gradientUnits="userSpaceOnUse">
	<stop  offset="0" style="stop-color:#FFFF00"/>
	<stop  offset="0.4318" style="stop-color:#FFFD00"/>
	<stop  offset="0.5937" style="stop-color:#FEF600"/>
	<stop  offset="0.7102" style="stop-color:#FDEA00"/>
	<stop  offset="0.805" style="stop-color:#FCD900"/>
	<stop  offset="0.8865" style="stop-color:#FBC300"/>
	<stop  offset="0.9576" style="stop-color:#F8A800"/>
	<stop  offset="1" style="stop-color:#F79400"/>
</radialGradient>
<path class="st0" d="M718.3,878.1H281.7L63.4,500l218.3-378.1h436.6L936.6,500L718.3,878.1z"/>
<path d="M726.1,75.7H273.9c-11.7,0-22.5,6.2-28.4,16.4L19.5,483.6c-5.9,10.1-5.9,22.6,0,32.8l226.1,391.5
	c5.9,10.1,16.7,16.4,28.4,16.4h452.1c11.7,0,22.5-6.2,28.4-16.4l226.1-391.5c5.9-10.1,5.9-22.6,0-32.8L754.4,92.1
	C748.6,82,737.8,75.7,726.1,75.7z M702.1,850.1H297.9L95.7,500l202.1-350.1h404.3L904.3,500L702.1,850.1z"/>
<linearGradient id="SVGID_2_" gradientUnits="userSpaceOnUse" x1="391.6598" y1="514.199" x2="607.2299" y2="514.199">
	<stop  offset="1.973119e-007" style="stop-color:#FFFF00"/>
	<stop  offset="0.2449" style="stop-color:#FFF700"/>
	<stop  offset="0.6328" style="stop-color:#FFE000"/>
	<stop  offset="1" style="stop-color:#FFC400"/>
</linearGradient>
<path class="st1" d="M499.4,683.7c-59.5,0-107.8-75.9-107.8-169.5s48.3-169.5,107.8-169.5c59.5,0,107.8,75.9,107.8,169.5
	S559,683.7,499.4,683.7z"/>
<path d="M394.5,485.7c0,0,39.9,23.8,105.5,23.8c65.7,0,103.4-27.7,103.4-27.7l1,40.9c0,0-37.1,26.7-104.4,26.7
	c-73.9,0-106.9-23.2-106.9-23.2L394.5,485.7z"/>
<path d="M409.2,606.9c0,0,30.5,18.9,92.9,19.1c56.7,0.2,88.4-21.8,88.4-21.8l-6.1,22.5c0,0-24.3,18-82.3,18
	c-56.5,0-82.9-17.6-82.9-17.6L409.2,606.9z"/>
<path d="M396.3,549.4c0,0,41.8,22.8,106.5,22.8c66.1,0,105.1-30.1,105.1-30.1l-6.9,34.2c0,0-25.8,22.7-95.9,23.9
	c-64.6,1.1-104-19.5-104-19.5L396.3,549.4z"/>
<path d="M444.1,656.6c0,0,24.1,11.2,59.7,10.5c38.4-0.8,57.6-13.1,57.6-13.1s-28.9,29.9-59.4,29.9S444.1,656.6,444.1,656.6z"/>
<path d="M498.6,442.4c14.3-7.1,27.5-4,37,8.4c2.6,3.4,4.5,7.4,6.9,11c2.9,4.4,5.9,8.8,9.3,12.9c3.6,4.3,8.7,5.9,14.3,5.6
	c7-0.3,10.4-3.8,10.6-11c0-1.6,0-3.3,0-5c8.3,6.3,7.8,18.6-1.2,24.9c-2.9,2-6.4,3.6-9.8,4.5c-16,4-31.5,2.4-46.1-5.8
	c-8.3-4.7-13.5-10.7-20.6-23.3c-1,1.5-1.9,2.8-2.6,4.2c-9.1,16.7-23.8,24.7-42.1,26.6c-8.9,0.9-17.8,0.3-26.3-3.1
	c-6.7-2.7-11.3-7.1-12.8-14.5c-1.1-5.7,0.6-9.6,6.1-13.4c0,2.3-0.1,4.4,0,6.5c0.4,5.2,3.3,8.4,8.5,9.1c7.3,1,13.5-1.2,17.9-7.1
	c3.9-5.2,7.3-10.8,10.6-16.4c4.5-7.8,10.6-13.7,19-17C484.7,436.7,491.8,438,498.6,442.4"/>
<path id="Gafas" d="M425.8,401.4c-0.1,2.5,0.9,3.5,1.6,4.3c0.2,0.2,0.4,0.5,0.6,0.7c0.4,0.7,0.6,1.4,0.7,2.1
	c3,18.3,3.7,20.7,11.4,24.8c3.7,1.9,11.2,3.2,18.8,3.2c5.9,0,14.4-0.8,21.5-4.5c10.3-5.4,14.1-23.9,14.3-24.8c0-0.1,0.3-2.3,5-2.3h0
	l0.3,0c4.5,0,4.8,2.2,4.8,2.4c0.2,0.8,4,19.3,14.3,24.7c7.1,3.7,15.6,4.5,21.5,4.5c7.6,0,15.1-1.3,18.8-3.2c7.7-4,8.3-6.5,11.4-24.8
	c0.1-0.8,0.4-1.5,0.7-2.1c0.2-0.3,0.4-0.5,0.6-0.7c0.7-0.8,1.6-1.8,1.6-4.3c0-0.4,0-1.2,0-2c0-1.2,0.1-2.6,0-3.4
	c-0.2-3.7-3.5-5.2-5.1-5.5c-10.5-2.2-23.2-2.8-36.5-1.8l-0.7,0c-8.1,0.6-12.6,0.9-18,3.3c-1.2,0.6-2.5,1.2-3.6,1.8
	c-2,1-4.9,2.2-6.5,2.5c-0.6,0.1-1.3,0.3-1.8,0.4c-1.1,0.2-2.1,0.2-3.2,0c-0.6-0.1-1.2-0.3-1.8-0.4c-1.6-0.3-4.5-1.5-6.5-2.5
	c-1.1-0.6-2.4-1.2-3.6-1.8c-5.3-2.4-9.8-2.7-18-3.3l-0.7,0c-13.4-1-26-0.3-36.5,1.8c-1.7,0.3-5,1.8-5.2,5.5c0,0.8,0,2.2,0,3.4
	C425.8,400.3,425.8,401,425.8,401.4z M570.4,396.9v2.7l-3.4-1.4L570.4,396.9z M511.3,400.8c0.5-1.3,3.8-5.5,23.9-6.7
	c3.5-0.2,6.5-0.3,9.2-0.3c11.9,0,15.7,2.1,17.9,5.6c1.3,2.1,2.3,6.4,2.3,9.1c0,6-1.2,16.5-9.4,20.5c-3.8,1.8-9.5,2.9-15.2,2.9
	c-11,0-19.8-3.7-23.5-10C508.6,408.8,511.2,401,511.3,400.8L511.3,400.8z M436.9,399.4c2.3-3.4,6-5.6,17.9-5.6
	c2.6,0,5.6,0.1,9.2,0.3c20.1,1.2,23.4,5.4,24,6.9c0,0.1,2.7,7.9-5.1,21c-3.7,6.2-12.5,10-23.5,10c-5.7,0-11.4-1.1-15.2-2.9
	c-8.3-4-9.5-14.6-9.4-20.5C434.7,405.7,435.6,401.4,436.9,399.4L436.9,399.4z M428.8,396.9l3.4,1.4l-3.4,1.4V396.9L428.8,396.9z"/>
<circle cx="447.1" cy="406.3" r="7.6"/>
<circle cx="526.6" cy="406.3" r="7.6"/>
<polygon class="st2" points="488.8,685.7 505,737.4 524.2,682.2 "/>
<path d="M479.2,681.7l27.9,84.1l23.8-84.1H479.2z M506,727.2l-13.8-41.6h25.5L506,727.2z"/>
<circle class="st3" cx="451.8" cy="303.4" r="13.1"/>
<path d="M475.4,303.4c0-13-10.6-23.6-23.6-23.6c-13,0-23.6,10.6-23.6,23.6s10.6,23.6,23.6,23.6c0.9,0,1.7-0.1,2.6-0.1l9,21.3
	l11.4-4.9l-8.9-21C471.7,318,475.4,311.1,475.4,303.4z M440.6,303.4c0-6.2,5-11.2,11.2-11.2s11.2,5,11.2,11.2s-5,11.2-11.2,11.2
	S440.6,309.6,440.6,303.4z"/>
<circle class="st3" cx="541.1" cy="301.3" r="13.1"/>
<path d="M559.5,316.1c8.2-10.2,6.6-25-3.6-33.2c-10.2-8.2-25-6.6-33.2,3.6c-8.2,10.2-6.6,25,3.6,33.2c0.7,0.5,1.4,1,2.1,1.5
	l-6.3,22.2l12,3.4l6.2-22C547.5,325.1,554.7,322.1,559.5,316.1z M532.4,294.3c3.9-4.8,10.9-5.6,15.7-1.7c4.8,3.9,5.6,10.9,1.7,15.7
	c-3.9,4.8-10.9,5.6-15.7,1.7C529.3,306.1,528.5,299.1,532.4,294.3z"/>
<path d="M461.8,173.5c-74.4,3.5-134,63.2-137.5,137.5c-0.2,3.8,2.8,7,6.6,7h20c0-65.1,52.8-117.9,117.9-117.9v-20
	C468.8,176.3,465.6,173.4,461.8,173.5z"/>
<path d="M462.8,229.7c-45.6,2.1-82.2,38.7-84.3,84.3c-0.1,2.3,1.8,4.1,4,4.1l20.5,0c0-35.3,28.6-63.9,63.9-63.9v-20.5
	C466.9,231.4,465,229.6,462.8,229.7z"/>
<path d="M528,173.5c74.4,3.5,134,63.2,137.5,137.5c0.2,3.8-2.8,7-6.6,7h-20c0-65.1-52.8-117.9-117.9-117.9v-20
	C521.1,176.3,524.2,173.4,528,173.5z"/>
<path d="M527.1,229.7c45.6,2.1,82.2,38.7,84.3,84.3c0.1,2.3-1.8,4.1-4,4.1l-20.5,0c0-35.3-28.6-63.9-63.9-63.9v-20.5
	C523,231.4,524.8,229.6,527.1,229.7z"/>
<path class="st3" d="M372.6,526.5c-13.9,3.4-28.7,10.3-50.1,28.1c-21.4,17.8-64.6,70.4-56.9,105.2s35.9,64.2,75.4,50.8
	c39.5-13.4,63.3-34.5,71.7-43.2c8.4-8.7,19.7-24.3,19.7-24.3s-24.4-28.5-28-53c-3.6-24.5-11.4-66.4-11.4-66.4
	S377.6,525.3,372.6,526.5z"/>
<path class="st3" d="M391.2,523.8l-27.4-2.4c0,0-51.6-18.1-77.5-57.3c-25.9-39.2-36.8-84.3-21.7-99c15.2-14.7,31.7-32.4,66.4-21.8
	s63.1,27.3,71.9,35.3c8.8,8,16.8,18.6,16.8,18.6s-19.7,40.9-22.5,64.7C394.5,485.7,391.2,523.8,391.2,523.8z"/>
<path d="M397.2,555.1c-8-47.7-2.9-88.2,11.8-128.3c14.7-40,10.8-37.5,10.8-37.5s-27.4-28.7-69.7-46.1s-73.8-11.7-91.7,9.7
	c-17.9,21.4-17.5,74.6,19.8,115.3c38,41.6,69.6,54.1,84.5,57.6c0,0-45.5,20.1-75.7,55.6c-28.1,33-47.7,80.7-26.9,113.6
	c20.9,32.8,73.7,34,109.8,11.5c36.2-22.5,62.7-57.2,62.7-57.2S406.5,610.4,397.2,555.1z M310.6,480.9
	c-43.6-44.6-57.4-90.6-27.7-119.1c29.7-28.4,89.4-1,109.4,15.9c20,16.9,22.6,20.9,22.6,20.9s-14.4,37.7-19.3,58.7
	c-6.7,29.1-5.6,64-5.6,64S354.3,525.5,310.6,480.9z M375.2,688.6c-44.4,26.3-78.5,19.4-94.4-8.4c-15.8-27.8-5.2-68.4,32.4-108
	c37.7-39.6,76.1-46.9,76.1-46.9s3.5,30,10.6,56.5c7.6,28.5,27.2,64.1,27.2,64.1S419.6,662.3,375.2,688.6z"/>
<path class="st4" d="M412.8,404.5c0,0-30.2-28.4-71.7-25.7c-41.5,2.7-49.1,63.5-12.2,101.1s63.2,38.6,63.2,38.6
	S385.8,488.9,412.8,404.5z"/>
<path class="st4" d="M389.7,527.4c0,0-35.9,10.5-63.5,43.6c-32,38.4-31,93,16.2,98s77.4-37.6,77.4-37.6s-7.9-14.6-19.8-53.8
	C388.2,538.3,389.7,527.4,389.7,527.4z"/>
<path class="st3" d="M577.2,640.9c0,0,22.4,27.2,40.3,37.8c18,10.6,52.5,33.7,81.6,27.7c29.1-5.9,46.8-36.2,46.8-36.2
	s18.2-29.9-1.6-57.9c-19.9-28-43.5-57.1-65-68.6c-21.5-11.4-35.1-19.5-47.9-22.9c-5-1.3-20.7-2.2-20.7-2.2S606.6,590.9,577.2,640.9z
	"/>
<path class="st3" d="M577.2,392.2c-0.7-1,41.6-43.8,64.3-51.1s65.4-15.9,79.8,1.2c14.4,17.1,23.9,42.2,18.6,63.9s-47.7,76-48.6,77.2
	c-0.9,1.2-48,34.4-56,35.2c-8,0.8-24.5,0-24.5,0S611.3,437.6,577.2,392.2z"/>
<path d="M568.8,640.5c0,0,35.8,40.5,73.3,60.8c37.4,20.4,93.6,15.4,112.5-18.6c18.9-34-4.3-79.7-33.4-111.8
	c-31.9-35.1-78.8-51.1-78.8-51.1c14.7-4.4,45.4-18.7,81-62.4c34.8-42.7,32.2-95.9,13-116.2c-19.1-20.3-50.9-24.1-92.1-4.4
	s-66.9,50-66.9,50s-4.1-2.3,12.9,36.8c17,39.1,19.4,80.1,14.2,128.2C598.4,607.7,568.8,640.5,568.8,640.5z M611.9,516.9
	c0,0-0.9-34.9-9.3-63.5c-6.1-20.7-19.8-57.5-19.8-57.5s2.4-4.1,21.4-22.2c19-18,77-48.9,108.3-22.2c31.3,26.7,20.2,73.4-20.8,120.5
	C650.7,519.1,611.9,516.9,611.9,516.9z M577.2,636.7c0,0,20.3-29.9,26.3-58.8c5.6-26.9,7.3-57,7.3-57s43.4,5,83.3,42.4
	c39.9,37.4,52.9,77.3,38.7,106c-14.2,28.7-47.9,37.5-93.7,13.8S577.2,636.7,577.2,636.7z"/>
<path class="st4" d="M585.2,402c0,0,29.2-30.1,71.6-29.9c42.4,0.2,53.7,60.4,18.3,100.1s-63.3,42.2-63.3,42.2S613.5,484.7,585.2,402
	z"/>
<path class="st4" d="M610.5,526.5c0,0,36.6,8.6,66.2,40.7c34.4,37.2,36.6,93-10.4,100.8c-47,7.9-85.3-37.2-85.3-37.2
	s9-10.2,20.1-49.7C612.3,540.9,610.5,526.5,610.5,526.5z"/>
<path class="st5" d="M500.6,333.7c-62.3,0-112.9,79.8-112.9,178.1S438.2,690,500.6,690c62.3,0,112.9-79.8,112.9-178.1
	S562.9,333.7,500.6,333.7z M499.4,677.5c-57.3,0-103.8-73.1-103.8-163.3c0-90.2,46.5-163.3,103.8-163.3
	c57.3,0,103.8,73.1,103.8,163.3C603.2,604.4,556.8,677.5,499.4,677.5z"/>
<g>
	<rect x="383" y="770" class="st6" width="248.5" height="87.8"/>
	<path d="M411.5,798.8h19v23.5c-5,2.1-10.6,3.2-16.8,3.2c-8.1,0-14.3-2.3-18.7-6.9s-6.5-11.1-6.5-19.5c0-5.2,1.1-9.9,3.2-13.9
		s5.2-7.2,9.2-9.4c4-2.2,8.6-3.3,13.8-3.3c5.6,0,10.6,1,15.1,3.1l-1.4,3.2c-4.5-2.1-9.1-3.1-13.9-3.1c-6.8,0-12.2,2.1-16.1,6.3
		s-6,9.8-6,16.9c0,7.7,1.9,13.6,5.7,17.5s9.3,5.9,16.6,5.9c4.7,0,8.8-0.7,12.1-2v-18.1h-15.3V798.8z"/>
	<path d="M472.1,805.6c0,6.2-1.5,11.1-4.5,14.6c-3,3.5-7.2,5.3-12.5,5.3c-3.4,0-6.3-0.8-8.9-2.4c-2.6-1.6-4.5-3.9-5.9-7
		c-1.4-3-2-6.5-2-10.5c0-6.2,1.5-11.1,4.5-14.6c3-3.5,7.2-5.2,12.5-5.2c5.3,0,9.4,1.8,12.4,5.3C470.7,794.6,472.1,799.4,472.1,805.6
		z M442,805.6c0,5.3,1.2,9.4,3.5,12.3c2.3,2.9,5.6,4.4,9.8,4.4c4.2,0,7.5-1.5,9.8-4.4c2.3-2.9,3.5-7,3.5-12.3
		c0-5.3-1.2-9.4-3.5-12.3c-2.3-2.9-5.6-4.4-9.8-4.4c-4.2,0-7.5,1.4-9.8,4.3C443.1,796.2,442,800.3,442,805.6z"/>
	<path d="M481.5,773.3H496c6.8,0,11.8,1,14.8,3.1c3,2,4.6,5.3,4.6,9.7c0,3-0.8,5.6-2.6,7.5s-4.2,3.3-7.4,3.9v0.4
		c7.8,1.3,11.7,5.4,11.7,12.3c0,4.6-1.6,8.2-4.7,10.8c-3.1,2.6-7.5,3.9-13,3.9h-17.9V773.3z M487.4,795.3h9.9c4.2,0,7.3-0.7,9.1-2
		s2.8-3.6,2.8-6.7c0-2.9-1-5-3.1-6.2c-2.1-1.3-5.3-1.9-9.9-1.9h-8.8V795.3z M487.4,800.4v19.3h10.7c4.2,0,7.3-0.8,9.4-2.4
		c2.1-1.6,3.2-4.1,3.2-7.5c0-3.2-1.1-5.5-3.2-7c-2.1-1.5-5.4-2.3-9.8-2.3H487.4z"/>
	<path d="M541.6,825.4c-5.7,0-10.2-1.7-13.5-5.2c-3.3-3.5-4.9-8.3-4.9-14.5c0-6.2,1.5-11.2,4.6-14.8s7.2-5.5,12.3-5.5
		c4.8,0,8.7,1.6,11.5,4.8c2.8,3.2,4.2,7.4,4.2,12.6v3.7h-26.6c0.1,4.5,1.3,8,3.4,10.3s5.2,3.5,9.2,3.5c4.2,0,8.3-0.9,12.3-2.6v5.2
		c-2.1,0.9-4,1.5-5.9,1.9C546.5,825.3,544.2,825.4,541.6,825.4z M540,790.4c-3.1,0-5.6,1-7.4,3s-2.9,4.8-3.3,8.4h20.2
		c0-3.7-0.8-6.5-2.5-8.5C545.4,791.3,543.1,790.4,540,790.4z"/>
	<path d="M580.1,825.4c-5.7,0-10.2-1.7-13.5-5.2c-3.3-3.5-4.9-8.3-4.9-14.5c0-6.2,1.5-11.2,4.6-14.8s7.2-5.5,12.3-5.5
		c4.8,0,8.7,1.6,11.5,4.8c2.8,3.2,4.2,7.4,4.2,12.6v3.7h-26.6c0.1,4.5,1.3,8,3.4,10.3s5.2,3.5,9.2,3.5c4.2,0,8.3-0.9,12.3-2.6v5.2
		c-2.1,0.9-4,1.5-5.9,1.9C584.9,825.3,582.7,825.4,580.1,825.4z M578.5,790.4c-3.1,0-5.6,1-7.4,3s-2.9,4.8-3.3,8.4H588
		c0-3.7-0.8-6.5-2.5-8.5C583.9,791.3,581.6,790.4,578.5,790.4z"/>
	<path d="M627.2,814.2c0,3.6-1.3,6.4-4,8.3s-6.4,2.9-11.3,2.9c-5.1,0-9.1-0.8-12-2.4v-5.4c1.9,0.9,3.8,1.7,6,2.2
		c2.1,0.5,4.2,0.8,6.1,0.8c3,0,5.4-0.5,7-1.5c1.6-1,2.5-2.5,2.5-4.5c0-1.5-0.7-2.8-2-3.9c-1.3-1.1-3.8-2.3-7.6-3.8
		c-3.6-1.3-6.1-2.5-7.7-3.5c-1.5-1-2.6-2.1-3.4-3.4c-0.7-1.3-1.1-2.8-1.1-4.5c0-3.1,1.3-5.6,3.8-7.4c2.6-1.8,6.1-2.7,10.5-2.7
		c4.2,0,8.2,0.8,12.2,2.5l-2.1,4.8c-3.9-1.6-7.4-2.4-10.5-2.4c-2.8,0-4.9,0.4-6.3,1.3c-1.4,0.9-2.1,2.1-2.1,3.6c0,1,0.3,1.9,0.8,2.6
		c0.5,0.7,1.4,1.4,2.6,2.1c1.2,0.7,3.4,1.6,6.8,2.9c4.6,1.7,7.7,3.3,9.3,5C626.4,809.5,627.2,811.7,627.2,814.2z"/>
</g>
<g>
</g>
<g>
</g>
<g>
</g>
<g>
</g>
<g>
</g>
<g>
</g>
<g>
</g>
<g>
</g>
<g>
</g>
<g>
</g>
<g>
</g>
</svg>
